<svg width="34" height="25" viewBox="0 0 34 25" fill="none" xmlns="http://www.w3.org/2000/svg">
<path d="M12.72 24.9998C12.4458 24.9989 12.1746 24.9417 11.9235 24.8316C11.6723 24.7215 11.4465 24.5609 11.26 24.3598L1.53999 14.0198C1.17664 13.6326 0.981998 13.1169 0.998877 12.5862C1.01575 12.0555 1.24277 11.5532 1.62999 11.1898C2.0172 10.8265 2.5329 10.6318 3.06363 10.6487C3.59436 10.6656 4.09664 10.8926 4.45999 11.2798L12.7 20.0598L29.52 1.65982C29.6907 1.44727 29.903 1.27185 30.144 1.14435C30.3849 1.01685 30.6494 0.939948 30.9212 0.918379C31.1929 0.896811 31.4662 0.931026 31.7243 1.01892C31.9823 1.10682 32.2197 1.24654 32.4218 1.42951C32.6238 1.61248 32.7864 1.83483 32.8994 2.08291C33.0124 2.33098 33.0735 2.59954 33.079 2.8721C33.0845 3.14465 33.0341 3.41544 32.9311 3.66784C32.8281 3.92024 32.6746 4.14892 32.48 4.33982L14.2 24.3398C14.0153 24.5445 13.7902 24.7088 13.539 24.8224C13.2877 24.936 13.0157 24.9964 12.74 24.9998H12.72Z" fill="#822740"/>
</svg>
