<svg width="30" height="27" viewBox="0 0 30 27" fill="none" xmlns="http://www.w3.org/2000/svg">
<path d="M26.2656 3.94531C23.2578 1.42969 18.8281 1.8125 16.0391 4.71094L15 5.80469L13.9062 4.71094C11.6641 2.41406 7.17969 0.992188 3.67969 3.94531C0.234375 6.89844 0.0703125 12.1484 3.13281 15.3203L13.7422 26.2578C14.0703 26.5859 14.5078 26.75 14.9453 26.75C15.4375 26.75 15.875 26.5859 16.2031 26.2578L26.8125 15.3203C29.875 12.1484 29.7109 6.89844 26.2656 3.94531ZM25.5547 14.1172L15 25.0547L4.39062 14.1172C2.3125 11.9297 1.875 7.82812 4.82812 5.3125C7.83594 2.74219 11.3359 4.60156 12.6484 5.91406L15 8.32031L17.2969 5.91406C18.5547 4.60156 22.1094 2.74219 25.1172 5.3125C28.0703 7.82812 27.6328 11.9297 25.5547 14.1172Z" fill="#B02E51"/>
</svg>
