<svg width="34" height="34" viewBox="0 0 34 34" fill="none" xmlns="http://www.w3.org/2000/svg">
<path d="M26 33.667C19.1955 33.6582 12.6722 30.9512 7.86065 26.1397C3.04912 21.3282 0.342133 14.8049 0.333313 8.00036C0.333313 5.96703 1.14105 4.01698 2.57883 2.5792C4.01661 1.14142 5.96665 0.333687 7.99998 0.333687C8.43055 0.330407 8.8604 0.369484 9.28331 0.450353C9.69217 0.510854 10.0941 0.611336 10.4833 0.750353C10.7571 0.846402 11.001 1.01224 11.191 1.23147C11.381 1.45071 11.5105 1.71573 11.5666 2.00035L13.85 12.0004C13.9115 12.2718 13.9041 12.5543 13.8284 12.8222C13.7527 13.09 13.6112 13.3346 13.4166 13.5337C13.2 13.767 13.1833 13.7837 11.1333 14.8504C12.775 18.4518 15.6553 21.344 19.25 23.0004C20.3333 20.9337 20.35 20.917 20.5833 20.7004C20.7824 20.5058 21.027 20.3643 21.2948 20.2886C21.5627 20.2129 21.8452 20.2055 22.1166 20.267L32.1166 22.5504C32.3922 22.6143 32.6469 22.7473 32.8568 22.9368C33.0667 23.1263 33.225 23.3661 33.3167 23.6337C33.4573 24.0293 33.5633 24.4364 33.6333 24.8504C33.7004 25.2692 33.7338 25.6928 33.7333 26.117C33.7026 28.1417 32.8721 30.0719 31.4233 31.4864C29.9744 32.901 28.0248 33.6849 26 33.667Z" fill="#A93B59"/>
</svg>
